<?xml version="1.0" encoding="utf-8"?>
<!-- Generator: Adobe Illustrator 24.3.0, SVG Export Plug-In . SVG Version: 6.00 Build 0)  -->
<svg version="1.1" id="Capa_1" xmlns="http://www.w3.org/2000/svg" xmlns:xlink="http://www.w3.org/1999/xlink" x="0px" y="0px"
	 viewBox="0 0 1920 2516.8" style="enable-background:new 0 0 1920 2516.8;" xml:space="preserve">
<style type="text/css">
	.st0{fill:#FFFFFF;}
	.st1{clip-path:url(#SVGID_2_);}
	.st2{fill:#E2E2E2;}
	.st3{opacity:0.9438;}
	.st4{opacity:0.8875;}
	.st5{opacity:0.8313;}
	.st6{opacity:0.775;}
	.st7{opacity:0.7188;}
	.st8{opacity:0.6625;}
	.st9{opacity:0.6062;}
	.st10{opacity:0.55;}
	.st11{opacity:0.4938;}
	.st12{opacity:0.4375;}
	.st13{opacity:0.3812;}
	.st14{opacity:0.325;}
	.st15{opacity:0.2688;}
	.st16{opacity:0.2125;}
	.st17{opacity:0.1562;}
	.st18{opacity:0.1;}
	.st19{fill:#EEEEEE;}
</style>
<g id="Capa_2_1_">
	<g id="FONDO">
		<rect x="0" y="6.8" class="st0" width="1920" height="2510"/>
		<g>
			<defs>
				<rect id="SVGID_1_" x="0" y="6.7" width="1920" height="2058.3"/>
			</defs>
			<clipPath id="SVGID_2_">
				<use xlink:href="#SVGID_1_"  style="overflow:visible;"/>
			</clipPath>
			<g class="st1">
				<g>
					<path class="st2" d="M-2227.9,1046.4l-5.8-1.4c25-101.5,85-195.1,173.4-270.6c82-70.1,186.7-121.9,294.8-145.9
						c185.6-41.3,397-19.1,646.4,68c103.4,36.1,205.8,80,304.8,122.5c99,42.5,201.3,86.4,304.6,122.4
						c248.3,86.7,458.7,108.8,643.1,67.7c262.4-58.5,470.7-243.8,672.3-423.1c73.3-65.2,149.1-132.6,226.4-192.9
						c219.7-171.5,474.7-293.5,737.4-352.9c279.3-63.1,556.6-51.5,801.7,33.7l-2,5.7c-480.4-167-1067.9-45-1533.4,318.2
						c-77.1,60.2-152.9,127.5-226.1,192.7c-202.1,179.7-411.1,365.6-675,424.4c-185.6,41.4-397,19.2-646.4-67.8
						c-103.5-36.1-205.9-80.1-305-122.6c-98.9-42.4-201.1-86.3-304.4-122.3c-248.3-86.7-458.7-108.9-643.1-67.8
						C-1993.3,685.3-2179.7,850.9-2227.9,1046.4z"/>
					<g class="st3">
						<path class="st2" d="M-2218,1057.3l-5.8-1.6c55.2-196.5,240.8-357.3,472.8-409.7c167.2-37.8,352.4-25.4,566.2,37.8
							c25.6,7.6,52.1,16,78.8,25.1c99.2,33.9,197.5,75.1,292.6,114.9c103,43.1,209.5,87.7,316.9,123c35.3,11.6,70.1,21.8,103.6,30.6
							c197.1,51.5,377.2,58.1,535.6,19.4c119.9-29.2,237.6-85,370.2-175.5c97.6-66.5,191.8-143.7,282.9-218.4
							c81.6-66.9,166-136.1,252-196.7c126.2-89.1,262.8-162.5,406.7-218.5C1833.1,39.9,2233.4,23.7,2581.6,142l-1.9,5.7
							C2232.8,29.9,1834,46,1456.7,193.1C1313.2,249,1177,322.1,1051.2,411c-85.8,60.5-170.1,129.6-251.6,196.5
							c-91.2,74.8-185.5,152.1-283.3,218.7c-133.3,90.9-251.5,147-372.2,176.3c-159.3,38.9-340.5,32.4-538.5-19.4
							c-33.6-8.8-68.5-19.1-103.9-30.7c-107.7-35.3-214.3-80-317.4-123.1c-95-39.8-193.3-80.9-292.3-114.8
							c-26.6-9.1-53.1-17.5-78.6-25.1c-212.8-62.8-397-75.2-563.1-37.6C-1979.6,703.7-2163.4,862.9-2218,1057.3z"/>
					</g>
					<g class="st4">
						<path class="st2" d="M-2208.1,1068.2l-5.7-1.8c60.8-192.2,248.2-350.4,477.4-402.9c165.8-38,355.8-26.8,564.8,33.3
							c25.5,7.3,52,15.6,78.8,24.5c95.4,31.9,190,70.6,281.6,108c106.6,43.6,216.9,88.7,328.1,122.8c35.3,10.8,70.1,20.3,103.5,28.1
							C-186.9,1025.6-8,1027,152,984.5c115.9-30.7,233.2-86.7,368.9-176.2C609.4,750.1,695.7,685,779.1,622
							c92.2-69.6,187.5-141.5,284.3-202.8c126.2-80.2,263.6-145.7,408.3-194.6C1843.6,99,2241.5,93.9,2592.1,210.3l-1.9,5.7
							c-349.3-115.9-745.9-110.9-1116.6,14.3c-144.3,48.7-281.2,114-407,193.9c-96.7,61.2-191.9,133-283.9,202.5
							c-83.5,63-169.9,128.2-258.5,186.5c-136.3,89.9-254.1,146.1-370.7,176.9c-161,42.8-340.8,41.4-534.4-4.2
							c-33.6-7.9-68.5-17.4-103.9-28.2c-111.4-34.2-221.9-79.3-328.6-123c-91.5-37.4-186.1-76.1-281.2-107.9
							c-26.7-8.9-53.1-17.2-78.5-24.5c-208-59.8-397.1-71-561.8-33.2C-1962.2,721.4-2147.9,877.9-2208.1,1068.2z"/>
					</g>
					<g class="st5">
						<path class="st2" d="M-2198.2,1079.1l-5.7-2c66.5-188,255.7-343.5,482-396.1c166.7-38.7,356.3-29,563.4,28.8
							c25.3,7.1,51.8,15.1,78.8,23.9c91.9,30,183.2,66.5,271.6,101.8c110,43.9,223.7,89.3,338.3,122.1
							c35.3,10.1,70.2,18.7,103.5,25.7c188.1,39.3,365.5,35.6,527.5-11C305.9,930.9,433.7,856,528.9,795.4
							c76.3-48.4,151.4-100.6,224-151.1c105.8-73.6,215.3-149.7,326.3-212.1c126.9-71.8,264.8-129.2,409.8-170.6
							c364.1-103.9,759.6-97.9,1113.6,16.8l-1.9,5.7c-352.9-114.3-747.1-120.3-1110.1-16.7c-144.6,41.3-282,98.5-408.5,170
							C971.4,499.8,862,575.8,756.3,649.3C683.7,699.8,608.5,752,532.1,800.5C436.6,861.3,308.3,936.4,163,978
							c-162.9,46.9-341.4,50.6-530.4,11.1c-33.5-7-68.5-15.7-104-25.8c-114.9-32.8-228.8-78.3-338.9-122.3
							c-88.3-35.2-179.5-71.7-271.2-101.6c-26.9-8.8-53.3-16.8-78.5-23.8c-206.2-57.6-394.8-67.3-560.5-28.8
							C-1944.9,739-2132.4,893-2198.2,1079.1z"/>
					</g>
					<g class="st6">
						<path class="st2" d="M-2188.3,1090l-5.6-2.2c73.2-186.6,259.6-335.7,486.6-389.2c167.7-39.5,356.8-31.3,562.1,24.4
							c25.4,6.9,51.9,14.7,78.7,23.3c88.6,28.3,176.9,62.7,262.3,96c113.1,44.1,230,89.7,347.8,120.8c35.3,9.3,70.1,17.1,103.5,23.2
							c183.3,33.5,359.5,24.7,523.5-26.2c136.6-42.1,261.8-113.4,366.3-177.5c59.5-36.4,118.7-74.4,175.9-111.1
							c129.8-83.3,252.3-162,382.1-226c127.5-63.4,265.9-112.7,411.4-146.6c360.2-83.7,742.9-67.1,1106.9,47.9l-1.8,5.7
							c-362.9-114.7-744.6-131.3-1103.7-47.8c-145,33.7-283,82.9-410,146.1C968.1,514.6,845.7,593.2,716,676.5
							c-57.2,36.8-116.4,74.8-176,111.2C435.3,852,309.6,923.5,172.4,965.8c-165,51.2-342.1,60-526.4,26.4
							c-33.6-6.1-68.6-13.9-104-23.3c-118-31.3-235.2-76.9-348.4-121.1c-85.3-33.2-173.5-67.6-262-95.9
							c-26.7-8.5-53.1-16.3-78.4-23.2c-204.3-55.4-392.4-63.6-559.1-24.3C-1931,757.4-2115.8,905.2-2188.3,1090z"/>
					</g>
					<g class="st7">
						<path class="st2" d="M-2178.4,1100.8l-5.5-2.4c78.9-182.3,267.1-328.8,491.2-382.4c168.7-40.3,357.4-33.6,560.7,19.9
							c25.3,6.7,51.7,14.3,78.7,22.7c85.7,26.7,171.2,59.2,253.9,90.7c115.9,44.1,235.8,89.7,356.4,119.1
							c35.3,8.6,70.2,15.5,103.5,20.7c178.4,27.9,353.2,14,519.5-41.4c133.5-44.2,258.4-115.1,365-178.2
							c34.9-20.6,69.6-41.2,104-61.8c157-93.7,305.3-182.3,461.7-249.2C1240,403.2,1379,361.9,1523.5,336
							c349-62.6,729.4-35.2,1100.1,79l-1.8,5.7c-369.8-114-749.2-141.3-1097.3-78.8c-144.1,25.9-282.6,67-411.6,122.2
							C957,530.9,808.9,619.3,652,713c-34.5,20.6-69.1,41.2-104,61.8c-106.8,63.2-232,134.4-366.1,178.7
							c-167.2,55.7-342.9,69.7-522.3,41.7c-33.5-5.2-68.5-12.2-104-20.8c-120.9-29.5-241-75.2-357.1-119.3
							c-82.6-31.4-168-63.9-253.5-90.6c-26.8-8.4-53.2-16-78.4-22.6c-202.4-53.3-390.1-60-557.8-19.9
							C-1913.6,775.1-2100.3,920.2-2178.4,1100.8z"/>
					</g>
					<g class="st8">
						<path class="st2" d="M-2168.5,1111.7l-5.4-2.6c84.5-178,274.5-321.9,495.8-375.5c169.7-41.1,357.9-35.9,559.4,15.4
							c25.1,6.4,51.6,13.8,78.6,22c83,25.2,165.9,56,246.1,85.8c118.6,44.1,241.2,89.6,364.3,117c35.3,7.8,70.2,14,103.5,18.3
							c173.4,22.5,346.8,3.5,515.5-56.6c131.1-46.4,254.6-116.8,363.7-178.9c185.9-105.3,378.1-214.1,573.5-285
							c130-47.2,269.4-80.3,414.4-98.6c335-42.2,713.1-4.1,1093.3,110.1l-1.7,5.8C2253,375,1875.8,337,1541.6,379.1
							c-144.6,18.2-283.6,51.3-413.1,98.3c-194.9,70.7-386.9,179.4-572.6,284.6c-109.2,62.2-233,132.8-364.6,179.3
							c-169.5,60.4-343.9,79.5-518.3,56.9c-33.5-4.3-68.6-10.5-104.1-18.4c-123.6-27.5-246.4-73.1-365.1-117.2
							c-80.1-29.8-162.9-60.5-245.7-85.7c-26.9-8.2-53.3-15.6-78.3-22c-200.5-51.1-387.7-56.3-556.5-15.4
							C-1896.3,792.7-2084.8,935.3-2168.5,1111.7z"/>
					</g>
					<g class="st9">
						<path class="st2" d="M-2158.6,1122.6l-5.3-2.8c91.5-176.4,278.6-314.2,500.4-368.7c170.8-41.9,358.6-38.2,558,11
							c25.1,6.2,51.5,13.4,78.6,21.4c80.5,23.9,161,53.1,238.9,81.3c121,43.9,246.2,89.2,371.7,114.5c35.4,7.1,70.3,12.4,103.5,15.8
							c168.2,17.4,340.3-6.8,511.5-71.8c114.2-43.1,222.9-102.9,328.1-160.8c11.4-6.3,22.9-12.6,34.3-18.8
							c180.3-98.2,375.5-197.5,581.2-259c130.5-39,270.4-64.1,416-74.6c321.4-23.1,687,24.4,1086.6,141.2l-1.7,5.8
							c-398.9-116.6-763.7-164.1-1084.4-141c-145.1,10.5-284.6,35.5-414.7,74.4C938.7,552,743.8,651.1,563.8,749.1
							c-11.4,6.3-22.8,12.5-34.3,18.8C424.2,825.9,315.3,885.8,200.7,929c-172,65.4-345,89.8-514.2,72.2
							c-33.5-3.4-68.5-8.8-104.1-15.9c-126-25.4-251.4-70.8-372.6-114.8c-77.8-28.2-158.2-57.4-238.5-81.2
							c-27-8-53.3-15.2-78.3-21.3c-198.5-49-385.3-52.7-555.1-11C-1882.3,811.1-2067.9,947.7-2158.6,1122.6z"/>
					</g>
					<g class="st10">
						<path class="st2" d="M-2148.8,1133.5l-5.2-3c97.2-172.1,286-307.3,505-361.8c171.9-42.8,359.2-40.6,556.7,6.5
							c25.1,6,51.5,13,78.5,20.8c78.2,22.6,156.5,50.3,232.2,77.1c123.3,43.6,250.7,88.7,378.6,111.7c34.3,6.2,68.8,10.7,103.5,13.4
							c165.2,12.7,331.2-15.8,507.4-87c98.3-39.5,193.2-90.5,285.1-139.8c25.3-13.6,50.6-27.2,76-40.5
							c223-116.6,410.2-190.6,589-232.9c130.9-31,271.3-48,417.5-50.6c304.3-5.4,647.5,49.3,1079.8,172.3l-1.6,5.8
							c-431.7-122.8-774.3-177.5-1078-172.1c-145.7,2.6-285.8,19.6-416.2,50.4c-178.3,42.2-365,116-587.6,232.4
							c-25.3,13.3-50.6,26.9-75.9,40.5c-92,49.4-187.1,100.4-285.7,140C33,988.4-133.9,1017-300,1004.2
							c-34.9-2.7-69.7-7.2-104.1-13.4c-128.3-23.1-256-68.3-379.5-112c-75.6-26.8-153.9-54.4-231.9-77
							c-26.9-7.8-53.2-14.7-78.2-20.7c-196.5-46.9-382.8-49.1-553.8-6.6C-1865,828.7-2052.3,962.9-2148.8,1133.5z"/>
					</g>
					<g class="st11">
						<path class="st2" d="M-2138.9,1144.4l-5.1-3.1c102.9-167.8,293.4-300.5,509.5-355c173.1-43.7,359.9-43,555.3,2.1
							c25.3,5.8,51,12.4,78.5,20.2c76.1,21.4,152.3,47.7,226,73.1c125.4,43.3,255.1,88,384.9,108.7c34.3,5.5,68.8,9.1,103.5,10.9
							c159.7,8,324.4-25.4,503.4-102.2c83.4-35.6,165.1-78.8,244-120.6c37.8-20,77-40.8,115.7-60.3
							c210.7-105.7,405.9-173.3,596.7-206.8c131.2-23,272.2-32,419-26.6c359.1,13.2,727,107.7,1073,203.4l-1.6,5.8
							c-345.7-95.6-713.2-190-1071.6-203.2c-146.4-5.4-287,3.6-417.8,26.5C984.4,550.5,789.7,618,579.6,723.4
							c-38.7,19.5-77.8,40.2-115.6,60.3c-79.1,41.9-160.8,85.2-244.5,120.9c-179.9,77.2-345.4,110.8-506.1,102.7
							c-34.9-1.8-69.7-5.5-104.2-11c-130.4-20.8-260.3-65.6-385.9-108.9c-73.7-25.4-149.8-51.7-225.7-73
							c-27.4-7.7-53-14.3-78.2-20.1c-194.5-44.8-380.3-45.5-552.5-2.1C-1847.7,846.2-2036.8,977.9-2138.9,1144.4z"/>
					</g>
					<g class="st12">
						<path class="st2" d="M-2129,1155.3l-5-3.3c110.2-165.9,297.5-292.8,514.1-348.2c171.8-43.9,363.4-44.8,553.9-2.4
							c25.3,5.6,50.9,12,78.4,19.5c74.1,20.3,148.4,45.3,220.3,69.5c127.4,42.8,259.1,87.1,390.8,105.3c34.3,4.8,68.9,7.6,103.5,8.4
							c156.3,3.7,315-33.6,499.4-117.4c69.6-31.4,138.4-67.8,204.9-102.9c50.1-26.5,101.9-53.8,153.5-78.8
							c201.3-96.7,404.7-157.6,604.5-180.8c131.4-15.3,272.9-16.1,420.5-2.6l2.6,0.2c305.1,28.3,610.3,111.2,933.4,199
							c43.3,11.8,86.7,23.5,130.3,35.3l-1.6,5.8c-43.6-11.7-87-23.5-130.3-35.3C2221.5,639,1916.5,556.2,1612,528l-2.5-0.2
							c-147.3-13.5-288.3-12.6-419.3,2.6C991,553.4,788.2,614.1,587.5,710.5c-51.5,24.9-103.2,52.2-153.3,78.7
							c-66.6,35.2-135.5,71.6-205.3,103.1c-185.3,84.2-344.8,121.7-502,118c-34.9-0.9-69.7-3.7-104.2-8.5
							c-132.3-18.3-264.3-62.7-391.9-105.6c-71.8-24.2-146.1-49.1-220-69.4c-27.4-7.5-53-13.9-78.1-19.5
							c-189.7-42.2-380.3-41.4-551.2,2.3C-1833.6,864.6-2019.7,990.6-2129,1155.3z"/>
					</g>
					<g class="st13">
						<path class="st2" d="M-2119.2,1166.2l-4.9-3.5c115.9-161.5,304.9-285.9,518.7-341.3c173-44.8,364.1-47.2,552.6-6.8
							c25.2,5.4,50.8,11.6,78.4,18.9c72.2,19.2,144.8,43,214.9,66c129.2,42.4,262.8,86.2,396.4,101.8c34.4,4,68.9,6,103.5,6
							c152.6-0.4,305.3-41.4,495.4-132.6c56.6-27,113.1-57.1,167.7-86.1c61.7-32.8,125.4-66.6,189.4-96.3
							c196.8-90.5,402.8-142.5,612.2-154.7c131.6-7.6,273.6-0.4,422.1,21.4c242.5,35.6,482.1,103.8,735.8,176
							c105.5,30,214.6,61.1,323.6,89.5l-1.5,5.8c-109.1-28.4-218.2-59.5-323.8-89.5c-253.5-72.2-492.9-140.3-735-175.9
							c-148.1-21.7-289.7-28.9-420.8-21.3c-208.7,12.1-414,63.9-610.1,154.1c-63.8,29.6-127.5,63.4-189.1,96.1
							c-54.7,29.1-111.2,59.1-167.9,86.2c-190.9,91.7-344.5,132.8-498,133.2c-34.8,0-69.6-2-104.2-6
							c-134.1-15.7-268-59.6-397.5-102.1c-70.1-23-142.6-46.7-214.6-65.9c-27.5-7.3-53-13.5-78.1-18.8
							c-187.6-40.2-377.7-37.8-549.8,6.8C-1816.3,882.2-2004.1,1005.8-2119.2,1166.2z"/>
					</g>
					<g class="st14">
						<path class="st2" d="M-2109.3,1177l-4.8-3.7c121.5-157.2,312.3-279.1,523.3-334.5c174.3-45.8,364.9-49.7,551.2-11.3
							c25.1,5.2,50.8,11.2,78.3,18.3c70.5,18.2,141.4,40.9,209.9,62.8c131,41.8,266.4,85.1,401.5,98c34.4,3.3,69,4.5,103.5,3.5
							c186.8-5.5,353.2-77.9,491.4-147.9c44.5-22.4,89.2-46.6,132.4-69.9c72.5-39.1,147.4-79.6,223.4-113.2
							c194.6-85.5,403.2-128.8,620-128.6c130.4-0.4,273,14.9,423.6,45.4c197.1,39.9,390,99.8,594.2,163.2
							c148.8,46.2,302.7,94,458.5,133.4l-1.5,5.8c-155.9-39.4-309.9-87.2-458.8-133.5c-204-63.4-396.7-123.2-593.6-163.1
							c-150.2-30.4-292.3-45.6-422.4-45.2c-216-0.2-423.8,42.9-617.6,128.1c-75.8,33.5-150.6,73.9-223,113
							c-43.3,23.3-88,47.5-132.5,70C109.1,938-58.1,1010.7-246.1,1016.2c-34.8,0.9-69.6-0.3-104.3-3.6
							c-135.8-13-271.5-56.4-402.8-98.3c-68.5-21.9-139.3-44.5-209.6-62.7c-27.5-7.1-53-13.1-78-18.2
							c-185.5-38.2-375.1-34.3-548.5,11.2C-1799,899.8-1988.6,1020.9-2109.3,1177z"/>
					</g>
					<g class="st15">
						<path class="st2" d="M-2099.5,1187.9l-4.6-3.8c129-155.1,316.5-271.4,527.8-327.7c175.5-46.7,365.7-52.2,549.9-15.7
							c25.1,5,50.7,10.7,78.3,17.7c68.9,17.3,138.2,38.9,205.3,59.7c132.6,41.2,269.7,83.9,406.4,94.1c34.4,2.6,69,3,103.5,1.1
							c178.7-10.1,339.8-84.3,487.4-163.1c33.1-17.6,66.6-36.1,99-54c82.6-45.6,167.9-92.8,255.5-129.7
							c192.2-80.6,403.4-115.1,627.8-102.5c130.9,7,273.9,30.3,425.1,69.3c163.4,42.2,329.3,99.5,489.8,154.9
							c179.7,62,365.6,126.2,556,172.7l-1.4,5.8c-190.7-46.6-376.7-110.8-556.6-172.9c-167.8-57.9-326.2-112.6-489.4-154.8
							c-150.8-39-293.4-62.2-423.9-69.2c-223.5-12.6-433.8,21.7-625.1,102c-87.3,36.8-172.5,83.9-254.9,129.4
							c-32.4,17.9-65.9,36.4-99.1,54.1c-148.1,79.1-310,153.6-489.9,163.8c-34.8,1.9-69.6,1.5-104.3-1.1
							c-137.4-10.3-274.8-53-407.7-94.4c-67-20.8-136.2-42.4-205-59.6c-27.4-6.9-52.9-12.6-78-17.6
							c-183.3-36.2-372.5-30.8-547.2,15.7C-1784.8,918.1-1971.2,1033.8-2099.5,1187.9z"/>
					</g>
					<g class="st16">
						<path class="st2" d="M-2089.6,1198.8l-4.5-4c134.7-150.7,323.8-264.6,532.4-320.8c176.9-47.7,366.6-54.7,548.5-20.2
							c25,4.7,50.6,10.3,78.2,17c67.4,16.4,135.3,37,200.9,56.9c134.1,40.6,272.8,82.6,410.9,90c34.5,1.9,69.1,1.4,103.5-1.4
							C-40.1,1001.3,117.6,920,263.7,838c22.5-12.6,44.9-25.3,67.3-38.1c92-52.4,187.1-106.6,285.9-146.3
							c190.5-76.2,404.5-101.8,635.5-76.4c131.5,14.2,275,45.6,426.6,93.3c137.7,43.3,276.6,96.9,411.1,148.8
							c202.2,78,411.2,158.6,628,209.9l-1.4,5.9c-217.2-51.4-426.5-132.1-628.8-210.1c-134.3-51.8-273.2-105.4-410.7-148.7
							c-151.3-47.6-294.4-78.9-425.5-93.1c-230.3-25.4-443.1,0.2-632.6,76c-98.5,39.5-193.4,93.6-285.2,146
							c-22.4,12.8-44.8,25.6-67.3,38.1c-146.7,82.3-305.1,164-485.8,179c-34.7,2.8-69.6,3.3-104.3,1.4
							c-138.8-7.4-277.9-49.5-412.3-90.2c-65.6-19.9-133.4-40.4-200.6-56.8c-27.5-6.7-53-12.3-77.9-17
							c-181.1-34.3-369.8-27.4-545.8,20.1C-1767.6,935.7-1955.7,1049-2089.6,1198.8z"/>
					</g>
					<g class="st17">
						<path class="st2" d="M-2079.8,1209.7l-4.3-4.2c142.4-148.4,328.1-257,536.9-314c178.2-48.7,367.4-57.2,547.2-24.7
							c24.9,4.5,50.5,9.9,78.2,16.4c66,15.6,132.5,35.2,196.8,54.1c135.5,39.9,275.7,81.2,415.2,85.7c34.5,1.2,69.1-0.1,103.5-3.8
							c171.6-18.9,324.6-102.3,479.4-193.5c12.5-7.4,25-14.7,37.4-22.1c100.6-59.6,204.7-121.2,314.4-163
							c189.4-72,405.8-88.9,643.2-50.2c134,21.7,274,60,428.2,117.3c117.8,43.7,236.1,94.7,350.5,144
							c218.6,94.2,444.7,191.5,681.8,245.7l-1.3,5.9c-237.7-54.3-464-151.8-682.8-246C1930.1,808,1811.8,757,1694.2,713.4
							c-153.8-57.1-293.5-95.4-427-117c-236.4-38.5-451.8-21.7-640.1,49.9c-109.3,41.7-213.1,103.1-313.5,162.6
							c-12.5,7.4-25,14.8-37.5,22.1c-155.3,91.5-309,175.3-481.8,194.3c-34.7,3.7-69.5,5-104.4,3.8c-140.2-4.5-280.8-45.9-416.7-86
							c-64.3-18.9-130.7-38.5-196.5-54c-27.6-6.5-53.1-11.9-77.9-16.3c-178.8-32.4-367.1-23.9-544.5,24.5
							C-1753.4,954-1938.1,1062.1-2079.8,1209.7z"/>
					</g>
					<g class="st18">
						<path class="st2" d="M-2069.9,1220.5l-4.2-4.3c282.5-274.5,699.1-403.4,1087.3-336.3c91.1,15.7,182.6,42,271.1,67.3
							c170.3,48.8,346.4,99.2,522.7,75.1C-15.9,998,140.4,901.3,291.6,807.8c108.6-67.1,220.9-136.6,341.3-180.1
							c294.8-106.5,648.3-68.1,1080.7,117.2c102.2,43.8,204.5,92.8,303.5,140.2c230.7,110.5,469.2,224.7,722.1,280.5l-1.3,5.9
							c-253.6-55.9-492.4-170.3-723.4-280.9c-98.9-47.4-201.2-96.4-303.3-140.1c-431-184.7-783-223-1076.2-117.1
							C515.1,676.7,403.1,746,294.8,812.9c-151.7,93.8-308.6,190.8-487,215.3c-177.6,24.3-354.3-26.3-525.1-75.2
							c-88.4-25.3-179.7-51.5-270.5-67.2C-1374.1,819.1-1788.8,947.3-2069.9,1220.5z"/>
					</g>
				</g>
				<g>
					<path class="st19" d="M-190,1611.5l-5.9-0.9c15.6-103.4,66.6-202.1,147.7-285.5c75.2-77.3,174.7-138.6,280-172.5
						c181-58.3,393.6-55.6,649.9,8.1c106.3,26.4,212.3,60.7,314.8,93.8c102.5,33.1,208.4,67.4,314.6,93.8
						c255.2,63.4,466.7,66,646.6,8c255.8-82.5,446.2-286.2,630.4-483.3c67-71.7,136.2-145.8,207.6-213
						c203-191,445.6-336,701.7-419.4c272.3-88.6,549.4-102.6,801.4-40.4l-1.4,5.8c-493.7-121.9-1067.5,53.7-1497.5,458.3
						c-71.3,67.1-140.4,141.1-207.4,212.7c-184.7,197.6-375.6,401.9-632.9,484.9c-181,58.3-393.6,55.7-649.9-7.9
						c-106.4-26.4-212.4-60.7-315-93.9c-102.4-33.1-208.2-67.4-314.4-93.7c-255.2-63.4-466.8-66.1-646.6-8.2
						C10.3,1230.2-160,1412.4-190,1611.5z"/>
					<g class="st3">
						<path class="st19" d="M-179.1,1621.4l-5.9-1.1c36.8-200.7,206.8-378,433-451.6c163-53,348.5-57.8,567.2-14.6
							c26.2,5.2,53.4,11.1,80.8,17.8c101.9,24.6,203.6,56.5,302,87.4c106.5,33.4,216.7,68,326.9,93.2c36.2,8.3,71.8,15.3,105.9,20.9
							c201,33.1,381,23,535.1-30.1c116.7-40.2,228.7-106.5,352.4-208.9c91.1-75.2,177.7-160.8,261.5-243.6
							c75.1-74.2,152.8-150.8,232.7-219.1c117.4-100.4,246.7-186,384.8-255.1c363.4-181.9,760.5-234.9,1118.1-149.2l-1.4,5.8
							c-356.3-85.3-751.9-32.5-1114,148.8c-137.7,68.9-266.6,154.3-383.6,254.3c-79.8,68.2-157.4,144.8-232.4,218.8
							c-83.9,82.9-170.7,168.5-261.9,243.9c-124.3,102.8-236.9,169.5-354.3,209.9c-155,53.4-336,63.6-538,30.3
							c-34.2-5.6-70-12.7-106.3-21c-110.5-25.2-220.7-59.9-327.4-93.3c-98.3-30.9-199.9-62.8-301.6-87.3
							c-27.4-6.6-54.5-12.6-80.6-17.7c-217.7-42.9-402.2-38.2-564.2,14.5C25.7,1247.3-142.7,1422.8-179.1,1621.4z"/>
					</g>
					<g class="st4">
						<path class="st19" d="M-168.2,1631.3l-5.9-1.3c42.8-197,214.8-371.8,438.2-445.2c161.5-53.1,351.8-59.5,565.5-19
							c26,4.9,53.2,10.7,80.7,17.2c97.9,22.9,195.7,52.8,290.4,81.6c110.2,33.6,224.2,68.3,338,92c36.1,7.5,71.7,13.7,105.7,18.4
							c196,27.4,374.2,12.3,529.7-44.9c112.6-41.2,224.2-107.8,351.1-209.4c82.8-66.1,162.7-138.9,239.9-209.3
							c85.4-77.8,173.6-158.2,264.4-228.2c118.2-91.5,249-169.4,388.6-231.4c358.7-159.4,754.4-201.1,1114.3-117.6l-1.4,5.9
							c-358.6-83.2-752.9-41.6-1110.5,117.3C3281.4,519.2,3151,596.8,3033.2,688c-90.6,69.8-178.8,150.2-264,227.9
							c-77.3,70.5-157.3,143.3-240.2,209.6c-127.4,102.1-239.5,168.9-352.8,210.4c-156.4,57.5-335.6,72.6-532.6,45.2
							c-34.1-4.8-69.8-11-106.1-18.5c-114.1-23.8-228.2-58.5-338.6-92.2c-94.5-28.8-192.3-58.6-290-81.5
							c-27.4-6.4-54.5-12.2-80.5-17.1c-212.7-40.3-401.9-34-562.5,18.8C44.6,1263.3-125.9,1436.3-168.2,1631.3z"/>
					</g>
					<g class="st5">
						<path class="st19" d="M-157.4,1641.2l-5.8-1.5c48.8-193.3,222.9-365.6,443.4-438.8c162.4-53.9,352.1-61.8,563.7-23.3
							c25.8,4.7,53,10.3,80.6,16.5c94.2,21.4,188.6,49.3,279.8,76.3c113.6,33.6,231,68.3,348.1,90.4c36.1,6.8,71.6,12.1,105.5,16
							c190.9,21.8,367.3,1.7,524.3-59.6c140.2-54.5,260.5-140.9,349.7-210c71.5-55.2,141.4-114.1,209.1-171.1
							c98.6-83,200.6-168.9,305.4-241.3c119.7-83.2,251.7-153,392.3-207.6c353-137,747.4-167.6,1110.4-86l-1.3,5.9
							c-361.9-81.3-755-50.8-1106.9,85.7c-140.2,54.4-271.8,124.1-391.1,207c-104.6,72.2-206.4,158-304.9,240.9
							c-67.7,57-137.7,115.9-209.3,171.2c-89.5,69.4-210.3,156-351.2,210.8c-157.9,61.7-335.3,81.9-527.1,60
							c-34-3.9-69.6-9.3-105.9-16.1c-117.4-22.1-235-56.9-348.7-90.5c-91.1-26.9-185.4-54.8-279.4-76.2
							c-27.6-6.3-54.6-11.8-80.4-16.5c-210.6-38.3-399.3-30.6-560.7,23C63.5,1279.3-109,1449.8-157.4,1641.2z"/>
					</g>
					<g class="st6">
						<path class="st19" d="M-146.5,1651.2l-5.8-1.7c55.7-192.6,227.6-358.3,448.6-432.4c163.3-54.8,352.4-64.1,561.9-27.6
							c25.9,4.5,53,9.9,80.5,15.9c90.9,20,182,46.1,270.1,71.4c116.7,33.5,237.3,68.1,357.4,88.3c36,6,71.4,10.6,105.2,13.5
							c185.6,16.4,360.2-8.6,518.8-74.4c132.1-54.5,250.2-137,348.3-210.6c55.9-41.7,111.3-85,164.9-126.8
							c121.5-94.9,236.3-184.6,359.7-260.3c121.1-74.9,254.3-136.8,396.1-183.9c350.9-116.6,733.6-135.4,1106.6-54.4l-1.3,5.9
							c-372-80.8-753.5-62-1103.4,54.2c-141.3,46.9-274.1,108.6-394.8,183.3c-123.1,75.5-237.7,165.1-359.1,259.9
							c-53.6,41.9-109,85.2-165,126.9c-98.4,73.8-216.9,156.5-349.6,211.3c-159.6,66.2-335.1,91.3-521.7,74.8
							c-34-3-69.6-7.6-105.7-13.6c-120.4-20.2-241.2-54.9-358.1-88.4c-88-25.2-179-51.3-269.7-71.3c-27.4-6-54.4-11.4-80.3-15.9
							c-208.6-36.3-396.6-27.1-559,27.4C79,1296.3-91.4,1460.5-146.5,1651.2z"/>
					</g>
					<g class="st7">
						<path class="st19" d="M-135.7,1661.1l-5.7-1.9c61.7-188.8,235.6-352.1,453.8-426c164.3-55.7,352.7-66.4,560.2-31.9
							c25.8,4.3,52.8,9.4,80.4,15.3c87.8,18.7,176,43.2,261.2,66.9c119.5,33.2,243.1,67.6,365.8,85.7c36,5.3,71.3,9,105,11.1
							c180.2,11.3,353-18.7,513.4-89.2c128.9-56.3,246.7-138.5,347-211.1c32.9-23.7,65.5-47.4,97.9-71.1
							c147.7-107.8,287.2-209.7,436.8-290.8c123.7-67.1,258.2-121,399.8-160.1c341.7-94.5,723-102.4,1102.7-22.8l-1.2,5.9
							c-378.7-79.4-759.1-71.5-1099.9,22.7c-141.1,39-275.2,92.7-398.6,159.6c-149.2,80.9-288.6,182.6-436.1,290.3
							c-32.4,23.7-65,47.4-97.9,71.1c-100.5,72.8-218.6,155.2-348.1,211.8c-161.3,70.9-335,101.1-516.2,89.7
							c-33.9-2.1-69.4-5.8-105.5-11.1c-123.1-18.2-246.9-52.6-366.6-85.9c-85.1-23.7-173.2-48.2-260.8-66.8
							c-27.5-5.8-54.4-11-80.1-15.3c-206.5-34.4-394-23.7-557.3,31.7C97.9,1312.3-74.5,1474.1-135.7,1661.1z"/>
					</g>
					<g class="st8">
						<path class="st19" d="M-124.8,1671l-5.6-2.1c67.7-185.1,243.6-345.9,459-419.7c165.2-56.6,353.1-68.8,558.4-36.2
							c25.6,4.1,52.6,9,80.3,14.7c85,17.5,170.4,40.5,252.9,62.8c122.1,32.9,248.4,67,373.6,82.9c35.9,4.5,71.2,7.4,104.8,8.6
							c174.8,6.4,345.7-28.5,508-103.9c126.2-58.3,242.8-139.8,345.6-211.7c175.4-122,356.7-248.1,544.8-336.7
							c125.1-58.9,260.9-104.8,403.6-136.4c329.7-72.9,709.7-69.8,1098.8,8.8l-1.2,5.9c-388.3-78.5-767.5-81.5-1096.3-8.8
							c-142.3,31.5-277.6,77.2-402.3,136c-187.6,88.4-368.7,214.4-543.9,336.2c-103,72.1-219.8,153.7-346.5,212.2
							c-163.2,75.8-335.1,110.9-510.8,104.5c-33.8-1.2-69.2-4.1-105.3-8.7c-125.6-16-252.1-50.1-374.4-83.1
							c-82.5-22.2-167.8-45.2-252.6-62.7c-27.6-5.7-54.5-10.6-80-14.6c-204.4-32.4-391.3-20.3-555.5,36
							C116.8,1328.2-57.7,1487.6-124.8,1671z"/>
					</g>
					<g class="st9">
						<path class="st19" d="M-114,1681l-5.6-2.3c74.9-184.1,248.4-338.6,464.2-413.3c166.2-57.5,353.5-71.1,556.7-40.5
							c25.5,3.8,52.5,8.6,80.2,14.1c82.4,16.3,165.2,38,245.3,58.9c124.5,32.5,253.3,66.2,380.7,79.8c35.9,3.8,71.1,5.9,104.5,6.2
							c169.1,1.8,338.2-38.1,502.6-118.7c109.7-53.4,212.5-123,311.8-190.3c10.8-7.3,21.6-14.6,32.4-21.9
							c170.5-114.4,355.7-231.3,554.9-311.5c126.3-50.9,263.4-88.8,407.3-112.6c317.9-52.7,686.3-39.1,1095,40.4l-1.2,5.9
							c-408-79.3-775.6-92.9-1092.8-40.4c-143.5,23.8-280.1,61.6-406,112.3c-198.7,80-383.6,196.7-553.8,310.9
							c-10.8,7.3-21.6,14.6-32.4,21.9c-99.5,67.4-202.4,137.1-312.6,190.7c-165.3,81-335.3,121.2-505.3,119.3
							c-33.6-0.3-69-2.4-105.1-6.2c-127.8-13.7-256.8-47.3-381.6-79.9c-80-20.9-162.8-42.5-245-58.8c-27.6-5.5-54.5-10.2-79.9-14
							c-202.2-30.5-388.5-16.9-553.8,40.3C132.4,1345.2-39.8,1498.5-114,1681z"/>
					</g>
					<g class="st10">
						<path class="st19" d="M-103.2,1690.9l-5.5-2.5c80.9-180.3,256.4-332.4,469.4-406.9c167.2-58.5,353.9-73.6,554.9-44.8
							c25.5,3.7,52.5,8.2,80.1,13.5c80,15.3,160.5,35.6,238.3,55.3c126.8,32,257.9,65.2,387.2,76.4c34.7,3,69.5,4.3,104.3,3.8
							c165.7-2.6,328.3-46.2,497.2-133.5c94.2-48.4,184.1-107.9,271-165.5c24-15.9,47.9-31.7,71.9-47.4
							c211.3-136.7,390.9-227.6,565-286.2c127.5-42.9,265.8-72.8,411-88.9c302.6-33.5,649.2-10.6,1091.1,72l-1.1,5.9
							c-441.2-82.5-787.3-105.3-1089.3-71.9c-144.9,16-282.7,45.9-409.8,88.6c-173.6,58.4-352.7,149.2-563.6,285.6
							c-24,15.6-47.9,31.5-71.9,47.3c-87,57.7-177,117.3-271.5,165.8c-169.7,87.6-333.3,131.5-499.9,134.1c-35,0.5-70-0.8-104.9-3.8
							c-129.9-11.2-261.2-44.4-388.2-76.5c-77.8-19.7-158.2-40-238-55.2c-27.5-5.3-54.4-9.8-79.8-13.4
							c-200-28.6-385.7-13.6-552.1,44.6C151.3,1361.2-22.9,1512.1-103.2,1690.9z"/>
					</g>
					<g class="st11">
						<path class="st19" d="M-92.3,1700.8l-5.4-2.7c87-176.5,264.4-326.3,474.6-400.5c168.3-59.5,354.4-76,553.1-49.1
							c25.7,3.5,51.9,7.7,80,12.8c77.7,14.3,156,33.5,231.8,52c128.9,31.5,262.1,64.1,393.3,72.7c34.6,2.3,69.4,2.7,104.1,1.3
							c159.8-6.7,320.7-55.2,491.9-148.2c79.8-43.1,157.1-93.7,231.9-142.6c35.8-23.5,72.9-47.7,109.6-70.7
							c200-124.6,388.2-210,575.1-261c128.5-35,268.1-57,414.8-65.1c358.8-20,733.8,40.2,1087.2,103.6l-1.1,5.9
							c-353-63.3-727.7-123.4-1085.8-103.5c-146.3,8.2-285.4,30-413.5,64.9c-186.4,50.8-374,136-573.5,260.3
							c-36.7,23-73.7,47.2-109.5,70.7c-74.9,49-152.3,99.7-232.3,142.9c-172,93.5-333.7,142.2-494.5,149c-34.9,1.4-69.9,1-104.7-1.3
							c-131.7-8.6-265.2-41.3-394.3-72.9c-75.7-18.5-153.9-37.6-231.5-51.9c-28-5.1-54.1-9.3-79.7-12.8
							c-197.8-26.7-382.9-10.3-550.3,48.9C170.1,1377.1-6,1525.7-92.3,1700.8z"/>
					</g>
					<g class="st12">
						<path class="st19" d="M-81.5,1710.7l-5.3-2.9c94.4-175.3,269.3-319,479.8-394.1c167-59.6,357.7-78.1,551.4-53.5
							c25.7,3.3,51.8,7.3,79.9,12.2c75.6,13.4,152,31.4,225.8,48.9c130.8,30.9,266,62.9,398.9,68.8c34.6,1.6,69.3,1.2,103.9-1.1
							c156-10.7,310.5-62.5,486.5-163c66.4-37.7,131.5-80.2,194.6-121.4c47.4-31,96.5-63,145.6-92.6
							c191.6-114.9,388.5-194.2,585.2-235.7c129.4-27.3,270.2-41.2,418.5-41.4h2.6c306.4,0,617.9,54.4,947.7,112
							c44.2,7.7,88.5,15.4,133,23.1l-1,5.9c-44.5-7.6-88.8-15.3-133-23.1C4202.9,795.4,3891.5,741,3585.7,741h-2.6
							c-147.9,0.2-288.3,14-417.3,41.3c-196.1,41.4-392.4,120.5-583.4,235c-49,29.6-98,61.5-145.4,92.5
							c-63.1,41.2-128.3,83.8-194.9,121.6c-176.7,101-332.1,153-489,163.8c-34.8,2.3-69.7,2.7-104.5,1.2c-133.4-6-268.9-38-400-69
							c-73.7-17.4-150-35.5-225.4-48.8c-28-4.9-54-8.9-79.6-12.2c-192.8-24.5-382.5-6.1-548.6,53.2
							C185.9,1394.1,12.2,1536.7-81.5,1710.7z"/>
					</g>
					<g class="st13">
						<path class="st19" d="M-70.7,1720.7l-5.2-3c100.5-171.5,277.2-312.8,485-387.7c168.1-60.6,358.2-80.6,549.6-57.8
							c25.6,3,51.7,6.8,79.8,11.6c73.7,12.5,148.1,29.5,220.1,45.9c132.6,30.3,269.7,61.6,404.1,64.8c34.6,0.9,69.2-0.3,103.6-3.6
							c151.9-14.5,300.2-69.3,481.1-177.8c53.9-32.2,107.3-67.2,159.1-101.2c58.4-38.3,118.7-77.9,179.7-113.3
							c187.6-108.3,387.9-179.1,595.4-210.5c130.3-19.7,272.4-25.7,422.2-17.6c244.7,13.1,489.6,58.9,748.9,107.4
							c107.8,20.2,219.3,41,330.5,59.3l-1,5.9c-111.3-18.2-222.8-39.1-330.6-59.3c-259.1-48.5-503.8-94.2-748.1-107.3
							c-149.5-8-291.1-2.1-421,17.6c-206.7,31.3-406.3,101.9-593.3,209.7c-60.8,35.3-121.1,74.9-179.4,113.2
							c-51.8,34-105.3,69.1-159.3,101.3c-181.6,108.9-330.8,164-483.6,178.6c-34.7,3.3-69.5,4.5-104.3,3.6
							c-135-3.2-272.4-34.6-405.3-64.9c-71.9-16.4-146.3-33.4-219.8-45.9c-28-4.8-54-8.5-79.5-11.6
							c-190.5-22.7-379.6-2.8-546.9,57.5C204.7,1410,29.1,1550.3-70.7,1720.7z"/>
					</g>
					<g class="st14">
						<path class="st19" d="M-59.9,1730.6l-5.1-3.2c106.5-167.7,285.2-306.7,490.2-381.3c169.3-61.6,358.7-83.1,547.8-62.1
							c25.5,2.8,51.6,6.4,79.7,11c71.9,11.7,144.5,27.7,214.8,43.1c134.3,29.6,273.1,60.2,408.9,60.6c34.6,0.1,69.1-1.9,103.4-6
							c185.5-22.8,344.6-110.1,475.7-192.6c42.2-26.4,84.5-54.6,125.4-81.8c68.6-45.6,139.5-92.8,212-133.3
							c185.9-103.1,389.6-165.4,605.5-185.2c129.9-12.4,273.2-10.4,426,6.1c200,21.6,397.5,63.4,606.7,107.7
							c152.5,32.3,310.1,65.7,468.8,90.5l-0.9,5.9c-158.9-24.8-316.6-58.2-469.2-90.6c-209-44.3-406.4-86.1-606.1-107.6
							c-152.4-16.4-295.3-18.5-424.8-6.1c-215.1,19.7-418,81.8-603.2,184.5c-72.3,40.3-143.1,87.5-211.6,133
							c-40.9,27.2-83.2,55.4-125.5,81.9c-131.7,82.8-291.4,170.5-478.1,193.4c-34.6,4.1-69.3,6.2-104.1,6.1
							c-136.4-0.4-275.6-31.1-410.1-60.7c-70.2-15.5-142.8-31.5-214.5-43.1c-28-4.5-54-8.1-79.4-10.9
							c-188.2-20.9-376.7,0.4-545.1,61.8C223.5,1425.9,46,1564-59.9,1730.6z"/>
					</g>
					<g class="st15">
						<path class="st19" d="M-49.1,1740.5l-5-3.4c114.2-166.3,290.1-299.5,495.3-375c170.5-62.7,359.3-85.7,546.1-66.4
							c25.5,2.6,51.5,6,79.6,10.4c70.2,10.9,141.2,26,209.9,40.5c135.8,28.8,276.2,58.6,413.3,56.2c34.5-0.6,69-3.4,103.2-8.5
							c177-26.5,330.6-115.3,470.3-207.3c31.4-20.6,63-42.1,93.6-62.9c78-53,158.7-107.9,242.4-152.7
							c183.9-98,391-151.8,615.6-159.9c131-5.2,275.6,4.9,429.7,29.8c166.6,27,337.1,68.7,502,109
							c184.7,45.2,375.7,91.9,569.6,120.7l-0.9,5.9c-194.2-28.8-385.3-75.6-570.2-120.8c-172.4-42.2-335.2-82-501.6-109
							c-153.8-24.9-297.9-34.9-428.5-29.8c-223.7,8.1-429.9,61.7-613,159.2c-83.5,44.7-164,99.4-241.9,152.4
							c-30.6,20.8-62.3,42.3-93.7,63c-140.2,92.4-294.5,181.6-472.7,208.3c-34.4,5.1-69.2,7.9-103.9,8.5
							c-137.7,2.4-278.5-27.4-414.7-56.3c-68.6-14.6-139.6-29.6-209.6-40.5c-28-4.3-53.9-7.7-79.3-10.3
							c-185.8-19.2-373.8,3.7-543.4,66.1C239.3,1442.8,64.4,1575.2-49.1,1740.5z"/>
					</g>
					<g class="st16">
						<path class="st19" d="M-38.2,1750.4l-4.8-3.6c120.3-162.4,298-293.3,500.5-368.6c171.7-63.8,360-88.2,544.3-70.7
							c25.4,2.4,51.3,5.6,79.5,9.7c68.6,10.1,138.1,24.3,205.3,38.1c137.3,28.1,279.3,57.1,417.4,51.7c34.5-1.3,68.9-4.9,102.9-10.9
							c177.4-31.4,326.9-127,464.9-222.1c21.2-14.6,42.4-29.3,63.5-44.2c86.7-60.7,176.4-123.4,271.2-172.1
							c182.6-93.4,393.3-138.7,625.7-134.6c132.2,2,278,20,433.4,53.6c141.1,30.5,284.4,71,423,110.2
							c208.5,59,424.1,120,644.7,151.1l-0.8,6c-221-31.1-436.8-92.2-645.5-151.2c-138.5-39.2-281.8-79.7-422.7-110.1
							c-155-33.5-300.4-51.4-432.3-53.4c-231.6-4.1-441.2,41-622.9,134c-94.4,48.4-183.9,111.1-270.5,171.6
							c-21.1,14.8-42.3,29.5-63.5,44.2c-138.5,95.5-288.6,191.4-467.2,223.1c-34.3,6-69,9.7-103.7,11
							c-138.9,5.4-281.3-23.7-418.9-51.8c-67.1-13.7-136.5-27.9-205-38c-28-4.1-53.9-7.3-79.2-9.7c-183.5-17.5-370.8,6.9-541.6,70.4
							C258.1,1458.7,81.3,1588.9-38.2,1750.4z"/>
					</g>
					<g class="st17">
						<path class="st19" d="M-27.4,1760.3l-4.7-3.7c128.1-160.9,303-286.1,505.7-362.2c173-64.9,360.6-90.9,542.6-75
							c25.2,2.2,51.2,5.2,79.4,9.1c67.1,9.4,135.2,22.8,201,35.7c138.7,27.3,282,55.5,421.3,47.1c34.5-2,68.8-6.5,102.7-13.4
							c169.1-34.6,313.8-131.8,459.5-236.9c11.8-8.5,23.5-17,35.2-25.5c94.7-68.6,192.6-139.5,298.1-191.3
							c181.9-89.2,395.8-126,635.9-109.4c135.4,9.2,278.4,34.5,437.2,77.3c121.3,32.7,243.8,72.5,362.3,111.1
							C4275,1096.9,4509,1173,4750.2,1205l-0.8,6c-241.6-32.1-476-108.3-702.6-182c-118.4-38.5-240.9-78.3-362-111
							c-158.4-42.7-301-67.9-436-77.1c-238.9-16.6-451.8,20-632.8,108.8c-105,51.6-202.7,122.3-297.2,190.8
							c-11.8,8.5-23.5,17-35.3,25.5c-146.2,105.5-291.5,203-461.8,237.9c-34.2,6.9-68.8,11.4-103.6,13.5
							c-140,8.4-283.8-19.8-422.8-47.2c-65.7-12.9-133.7-26.3-200.7-35.7c-28.1-3.9-54-6.9-79.1-9.1
							c-181.1-15.8-367.8,10.1-539.9,74.7C274,1475.7,100,1600.3-27.4,1760.3z"/>
					</g>
					<g class="st18">
						<path class="st19" d="M-16.6,1770.3l-4.6-3.9c256-299.4,658.9-466.2,1051.6-435.2c92.1,7.3,185.7,24.9,276.2,42
							c174.1,32.9,354,66.8,527.4,26.5c174.1-40.5,320.9-151.2,462.8-258.2c101.9-76.9,207.3-156.4,323.2-210.8
							c283.7-133.2,639.2-127.6,1086.9,17c105.8,34.2,212.2,73.6,315.2,111.6c239.9,88.7,487.9,180.5,744.9,212.7l-0.8,6
							c-257.7-32.3-506-124.2-746.2-213c-102.9-38.1-209.2-77.4-314.9-111.6c-446.2-144.2-800.2-149.8-1082.4-17.3
							c-115.4,54.2-220.5,133.5-322.2,210.2c-142.4,107.4-289.7,218.5-465,259.3c-174.6,40.6-355.2,6.5-529.8-26.5
							c-90.3-17.1-183.7-34.7-275.5-41.9C639.2,1306.4,238.1,1472.3-16.6,1770.3z"/>
					</g>
				</g>
			</g>
		</g>
	</g>
</g>
</svg>
