<?xml version="1.0" encoding="utf-8"?>
<!-- Generator: Adobe Illustrator 24.3.0, SVG Export Plug-In . SVG Version: 6.00 Build 0)  -->
<svg version="1.1" id="Capa_1" xmlns="http://www.w3.org/2000/svg" xmlns:xlink="http://www.w3.org/1999/xlink" x="0px" y="0px"
	 viewBox="0 0 1920.4 532.4" style="enable-background:new 0 0 1920.4 532.4;" xml:space="preserve">
<style type="text/css">
	.st0{fill:url(#SVGID_1_);}
	.st1{clip-path:url(#SVGID_3_);}
	.st2{fill:#C8C8C8;}
	.st3{opacity:0.9438;}
	.st4{opacity:0.8875;}
	.st5{opacity:0.8313;}
	.st6{opacity:0.775;}
	.st7{opacity:0.7188;}
	.st8{opacity:0.6625;}
	.st9{opacity:0.6062;}
	.st10{opacity:0.55;}
	.st11{opacity:0.4938;}
	.st12{opacity:0.4375;}
	.st13{opacity:0.3812;}
	.st14{opacity:0.325;}
	.st15{opacity:0.2688;}
	.st16{opacity:0.2125;}
	.st17{opacity:0.1562;}
	.st18{opacity:0.1;}
</style>
<g id="Capa_2_1_">
	<g id="PLECAS">
		
			<linearGradient id="SVGID_1_" gradientUnits="userSpaceOnUse" x1="-556.9711" y1="400.3143" x2="1367.771" y2="400.3143" gradientTransform="matrix(1 0 0 -1 556.9711 697.3762)">
			<stop  offset="0" style="stop-color:#F8EA21"/>
			<stop  offset="0.1054" style="stop-color:#F3CB21"/>
			<stop  offset="0.22" style="stop-color:#EFB222"/>
			<stop  offset="0.348" style="stop-color:#EC9E22"/>
			<stop  offset="0.4947" style="stop-color:#EA9122"/>
			<stop  offset="0.6765" style="stop-color:#E88822"/>
			<stop  offset="1" style="stop-color:#E88622"/>
		</linearGradient>
		<path class="st0" d="M1483.1,312.9L1483.1,312.9c-3,0.7-6,1.5-9,2.1c-174.6,40.6-355.2,6.5-529.8-26.5
			c-90.3-17.1-183.7-34.7-275.5-41.9C438.7,228.5,205.2,278.5,0,383.5l0,148.9l1920.4,0l0-205.1V221.1V61.7
			C1731.3,242.2,1527.7,301.5,1483.1,312.9z"/>
		<g>
			<defs>
				<rect id="SVGID_2_" x="0.2" y="14.7" width="1920" height="376.7"/>
			</defs>
			<clipPath id="SVGID_3_">
				<use xlink:href="#SVGID_2_"  style="overflow:visible;"/>
			</clipPath>
			<g class="st1">
				<g>
					<path class="st2" d="M-551,524.1l-5.9-0.9c15.6-103.4,66.6-202.1,147.7-285.5c75.2-77.3,174.7-138.6,280-172.5
						C51.8,7,264.4,9.6,520.7,73.3C627,99.7,733,134,835.5,167.1c102.5,33.1,208.4,67.4,314.6,93.8c255.2,63.4,466.7,66,646.6,8
						c255.8-82.5,446.2-286.2,630.4-483.3c67-71.7,136.2-145.8,207.6-213c203-191,445.6-336,701.7-419.4
						c272.3-88.6,549.4-102.6,801.4-40.4l-1.4,5.8c-493.7-121.9-1067.5,53.7-1497.5,458.3c-71.3,67.1-140.4,141.1-207.4,212.7
						c-184.7,197.6-375.6,401.9-632.9,484.9c-181,58.3-393.6,55.7-649.9-7.9c-106.4-26.4-212.4-60.7-315-93.9
						c-102.4-33.1-208.2-67.4-314.4-93.7C264,15.7,52.5,13-127.3,70.9C-350.8,142.9-521.1,325-551,524.1z"/>
					<g class="st3">
						<path class="st2" d="M-540.2,534l-5.9-1.1c36.8-200.7,206.8-378,433-451.6c163-53,348.5-57.8,567.2-14.6
							c26.2,5.2,53.4,11.1,80.8,17.8c101.9,24.6,203.6,56.5,302,87.4c106.5,33.4,216.7,68,326.9,93.2c36.2,8.3,71.8,15.3,105.9,20.9
							c201,33.1,381,23,535.1-30.1c116.7-40.2,228.7-106.5,352.4-208.9c91.1-75.2,177.7-160.8,261.5-243.6
							c75.1-74.2,152.8-150.8,232.7-219.1c117.4-100.4,246.7-186,384.8-255.1c363.4-181.9,760.5-234.9,1118.1-149.2l-1.4,5.8
							c-356.3-85.3-751.9-32.5-1114,148.8c-137.7,68.9-266.6,154.3-383.6,254.3c-79.8,68.2-157.4,144.8-232.4,218.8
							c-83.9,82.9-170.7,168.5-261.9,243.9c-124.3,102.8-236.9,169.5-354.3,209.9c-155,53.4-336,63.6-538,30.3
							c-34.2-5.6-70-12.7-106.3-21c-110.5-25.2-220.7-59.9-327.4-93.3c-98.3-30.9-199.9-62.8-301.6-87.3
							c-27.4-6.6-54.5-12.6-80.6-17.7C235.3,29.6,50.7,34.4-111.2,87.1C-335.4,160-503.8,335.4-540.2,534z"/>
					</g>
					<g class="st4">
						<path class="st2" d="M-529.3,543.9l-5.9-1.3c42.8-197,214.8-371.8,438.2-445.2C64.6,44.4,254.8,38,468.5,78.5
							c26,4.9,53.2,10.7,80.7,17.2c97.9,22.9,195.7,52.8,290.4,81.6c110.2,33.6,224.2,68.3,338,92c36.1,7.5,71.7,13.7,105.7,18.4
							c196,27.4,374.2,12.3,529.7-44.9c112.6-41.2,224.2-107.8,351.1-209.4c82.8-66.1,162.7-138.9,239.9-209.3
							c85.4-77.8,173.6-158.2,264.4-228.2c118.2-91.5,249-169.4,388.6-231.4c358.7-159.4,754.4-201.1,1114.3-117.6l-1.4,5.9
							C3811.4-830.5,3417-788.8,3059.5-630c-139.2,61.8-269.5,139.4-387.4,230.6c-90.6,69.8-178.8,150.2-264,227.9
							c-77.3,70.5-157.3,143.3-240.2,209.6c-127.4,102.1-239.5,168.9-352.8,210.4c-156.4,57.5-335.6,72.6-532.6,45.2
							c-34.1-4.8-69.8-11-106.1-18.5c-114.1-23.8-228.2-58.5-338.6-92.2c-94.5-28.8-192.3-58.6-290-81.5
							c-27.4-6.4-54.5-12.2-80.5-17.1c-212.7-40.3-401.9-34-562.5,18.8C-316.5,175.9-486.9,348.9-529.3,543.9z"/>
					</g>
					<g class="st5">
						<path class="st2" d="M-518.5,553.9l-5.8-1.5c48.8-193.3,222.9-365.6,443.4-438.8C81.6,59.6,271.2,51.8,482.9,90.3
							c25.8,4.7,53,10.3,80.6,16.5c94.2,21.4,188.6,49.3,279.8,76.3c113.6,33.6,231,68.3,348.1,90.4c36.1,6.8,71.6,12.1,105.5,16
							c190.9,21.8,367.3,1.7,524.3-59.6c140.2-54.5,260.5-140.9,349.7-210c71.5-55.2,141.4-114.1,209.1-171.1
							c98.6-83,200.6-168.9,305.4-241.3c119.7-83.2,251.7-153,392.3-207.6c353-137,747.4-167.6,1110.4-86l-1.3,5.9
							c-361.9-81.3-755-50.8-1106.9,85.7c-140.2,54.4-271.8,124.1-391.1,207c-104.6,72.2-206.4,158-304.9,240.9
							c-67.7,57-137.7,115.9-209.3,171.2c-89.5,69.4-210.3,156-351.2,210.8c-157.9,61.7-335.3,81.9-527.1,60
							c-34-3.9-69.6-9.3-105.9-16.1c-117.4-22.1-235-56.9-348.7-90.5c-91.1-26.9-185.4-54.8-279.4-76.2
							c-27.6-6.3-54.6-11.8-80.4-16.5C271.2,57.9,82.5,65.7-79,119.3C-297.6,191.9-470.1,362.5-518.5,553.9z"/>
					</g>
					<g class="st6">
						<path class="st2" d="M-507.6,563.8l-5.8-1.7c55.7-192.6,227.6-358.3,448.6-432.4c163.3-54.8,352.4-64.1,561.9-27.6
							c25.9,4.5,53,9.9,80.5,15.9c90.9,20,182,46.1,270.1,71.4c116.7,33.5,237.3,68.1,357.4,88.3c36,6,71.4,10.6,105.2,13.5
							c185.6,16.4,360.2-8.6,518.8-74.4c132.1-54.5,250.2-137,348.3-210.6c55.9-41.7,111.3-85,164.9-126.8
							c121.5-94.9,236.3-184.6,359.7-260.3c121.1-74.9,254.3-136.8,396.1-183.9c350.9-116.6,733.6-135.4,1106.6-54.4l-1.3,5.9
							c-372-80.8-753.5-62-1103.4,54.2c-141.3,46.9-274.1,108.6-394.8,183.3c-123.1,75.5-237.7,165.1-359.1,259.9
							c-53.6,41.9-109,85.2-165,126.9c-98.4,73.8-216.9,156.5-349.6,211.3c-159.6,66.2-335.1,91.3-521.7,74.8
							c-34-3-69.6-7.6-105.7-13.6c-120.4-20.2-241.2-54.9-358.1-88.4c-88-25.2-179-51.3-269.7-71.3c-27.4-6-54.4-11.4-80.3-15.9
							c-208.6-36.3-396.6-27.1-559,27.4C-282.1,209-452.5,373.1-507.6,563.8z"/>
					</g>
					<g class="st7">
						<path class="st2" d="M-496.8,573.7l-5.7-1.9c61.7-188.8,235.6-352.1,453.8-426c164.3-55.7,352.7-66.4,560.2-31.9
							c25.8,4.3,52.8,9.4,80.4,15.3c87.8,18.7,176,43.2,261.2,66.9c119.5,33.2,243.1,67.6,365.8,85.7c36,5.3,71.3,9,105,11.1
							c180.2,11.3,353-18.7,513.4-89.2c128.9-56.3,246.7-138.5,347-211.1c32.9-23.7,65.5-47.4,97.9-71.1
							C2430-186.3,2569.5-288.1,2719-369.2c123.7-67.1,258.2-121,399.8-160.1c341.7-94.5,723-102.4,1102.7-22.8l-1.2,5.9
							c-378.7-79.4-759.1-71.5-1099.9,22.7c-141.1,39-275.2,92.7-398.6,159.6c-149.2,80.9-288.6,182.6-436.1,290.3
							c-32.4,23.7-65,47.4-97.9,71.1c-100.5,72.8-218.6,155.2-348.1,211.8c-161.3,70.9-335,101.1-516.2,89.7
							c-33.9-2.1-69.4-5.8-105.5-11.1c-123.1-18.2-246.9-52.6-366.6-85.9c-85.1-23.7-173.2-48.2-260.8-66.8
							c-27.5-5.8-54.4-11-80.1-15.3c-206.5-34.4-394-23.7-557.3,31.7C-263.2,224.9-435.6,386.7-496.8,573.7z"/>
					</g>
					<g class="st8">
						<path class="st2" d="M-485.9,583.7l-5.6-2.1c67.7-185.1,243.6-345.9,459-419.7c165.2-56.6,353.1-68.8,558.4-36.2
							c25.6,4.1,52.6,9,80.3,14.7c85,17.5,170.4,40.5,252.9,62.8c122.1,32.9,248.4,67,373.6,82.9c35.9,4.5,71.2,7.4,104.8,8.6
							c174.8,6.4,345.7-28.5,508-103.9c126.2-58.3,242.8-139.8,345.6-211.7c175.4-122,356.7-248.1,544.8-336.7
							c125.1-58.9,260.9-104.8,403.6-136.4c329.7-72.9,709.7-69.8,1098.8,8.8l-1.2,5.9c-388.3-78.5-767.5-81.5-1096.3-8.8
							c-142.3,31.5-277.6,77.2-402.3,136c-187.6,88.4-368.7,214.4-543.9,336.2c-103,72.1-219.8,153.7-346.5,212.2
							C1684.9,272,1513,307.1,1337.3,300.7c-33.8-1.2-69.2-4.1-105.3-8.7c-125.6-16-252.1-50.1-374.4-83.1
							c-82.5-22.2-167.8-45.2-252.6-62.7c-27.6-5.7-54.5-10.6-80-14.6c-204.4-32.4-391.3-20.3-555.5,36
							C-244.3,240.8-418.8,400.2-485.9,583.7z"/>
					</g>
					<g class="st9">
						<path class="st2" d="M-475.1,593.6l-5.6-2.3c74.9-184.1,248.4-338.6,464.2-413.3c166.2-57.5,353.5-71.1,556.7-40.5
							c25.5,3.8,52.5,8.6,80.2,14.1c82.4,16.3,165.2,38,245.3,58.9c124.5,32.5,253.3,66.2,380.7,79.8c35.9,3.8,71.1,5.9,104.5,6.2
							c169.1,1.8,338.2-38.1,502.6-118.7c109.7-53.4,212.5-123,311.8-190.3c10.8-7.3,21.6-14.6,32.4-21.9
							c170.5-114.4,355.7-231.3,554.9-311.5c126.3-50.9,263.4-88.8,407.3-112.6c317.9-52.7,686.3-39.1,1095,40.4l-1.2,5.9
							c-408-79.3-775.6-92.9-1092.8-40.4c-143.5,23.8-280.1,61.6-406,112.3c-198.7,80-383.6,196.7-553.8,310.9
							c-10.8,7.3-21.6,14.6-32.4,21.9c-99.5,67.4-202.4,137.1-312.6,190.7c-165.3,81-335.3,121.2-505.3,119.3
							c-33.6-0.3-69-2.4-105.1-6.2C1118,282.6,989,248.9,864.3,216.3c-80-20.9-162.8-42.5-245-58.8c-27.6-5.5-54.5-10.2-79.9-14
							C337.2,113,150.9,126.5-14.4,183.7C-228.6,257.9-400.9,411.1-475.1,593.6z"/>
					</g>
					<g class="st10">
						<path class="st2" d="M-464.2,603.5l-5.5-2.5c80.9-180.3,256.4-332.4,469.4-406.9c167.2-58.5,353.9-73.6,554.9-44.8
							c25.5,3.7,52.5,8.2,80.1,13.5c80,15.3,160.5,35.6,238.3,55.3c126.8,32,257.9,65.2,387.2,76.4c34.7,3,69.5,4.3,104.3,3.8
							c165.7-2.6,328.3-46.2,497.2-133.5c94.2-48.4,184.1-107.9,271-165.5c24-15.9,47.9-31.7,71.9-47.4
							c211.3-136.7,390.9-227.6,565-286.2c127.5-42.9,265.8-72.8,411-88.9c302.6-33.5,649.2-10.6,1091.1,72l-1.1,5.9
							c-441.2-82.5-787.3-105.3-1089.3-71.9c-144.9,16-282.7,45.9-409.8,88.6C2598-270.1,2418.9-179.4,2208-43
							c-24,15.6-47.9,31.5-71.9,47.3c-87,57.7-177,117.3-271.5,165.8c-169.7,87.6-333.3,131.5-499.9,134.1c-35,0.5-70-0.8-104.9-3.8
							c-129.9-11.2-261.2-44.4-388.2-76.5c-77.8-19.7-158.2-40-238-55.2c-27.5-5.3-54.4-9.8-79.8-13.4
							c-200-28.6-385.7-13.6-552.1,44.6C-209.8,273.8-384,424.7-464.2,603.5z"/>
					</g>
					<g class="st11">
						<path class="st2" d="M-453.4,613.4l-5.4-2.7c87-176.5,264.4-326.3,474.6-400.5c168.3-59.5,354.4-76,553.1-49.1
							c25.7,3.5,51.9,7.7,80,12.8c77.7,14.3,156,33.5,231.8,52c128.9,31.5,262.1,64.1,393.3,72.7c34.6,2.3,69.4,2.7,104.1,1.3
							c159.8-6.7,320.7-55.2,491.9-148.2c79.8-43.1,157.1-93.7,231.9-142.6c35.8-23.5,72.9-47.7,109.6-70.7
							c200-124.6,388.2-210,575.1-261c128.5-35,268.1-57,414.8-65.1c358.8-20,733.8,40.2,1087.2,103.6l-1.1,5.9
							c-353-63.3-727.7-123.4-1085.8-103.5c-146.3,8.2-285.4,30-413.5,64.9c-186.4,50.8-374,136-573.5,260.3
							c-36.7,23-73.7,47.2-109.5,70.7c-74.9,49-152.3,99.7-232.3,142.9c-172,93.5-333.7,142.2-494.5,149c-34.9,1.4-69.9,1-104.7-1.3
							c-131.7-8.6-265.2-41.3-394.3-72.9c-75.7-18.5-153.9-37.6-231.5-51.9c-28-5.1-54.1-9.3-79.7-12.8
							C370.4,140.4,185.2,156.8,17.8,216C-190.9,289.7-367.1,438.3-453.4,613.4z"/>
					</g>
					<g class="st12">
						<path class="st2" d="M-442.6,623.4l-5.3-2.9c94.4-175.3,269.3-319,479.8-394.1c167-59.6,357.7-78.1,551.4-53.5
							c25.7,3.3,51.8,7.3,79.9,12.2c75.6,13.4,152,31.4,225.8,48.9c130.8,30.9,266,62.9,398.9,68.8c34.6,1.6,69.3,1.2,103.9-1.1
							c156-10.7,310.5-62.5,486.5-163c66.4-37.7,131.5-80.2,194.6-121.4c47.4-31,96.5-63,145.6-92.6
							c191.6-114.9,388.5-194.2,585.2-235.7c129.4-27.3,270.2-41.2,418.5-41.4h2.6c306.4,0,617.9,54.4,947.7,112
							c44.2,7.7,88.5,15.4,133,23.1l-1,5.9c-44.5-7.6-88.8-15.3-133-23.1c-329.5-57.6-640.8-111.9-946.7-111.9h-2.6
							c-147.9,0.2-288.3,14-417.3,41.3c-196.1,41.4-392.4,120.5-583.4,235c-49,29.6-98,61.5-145.4,92.5
							c-63.1,41.2-128.3,83.8-194.9,121.6c-176.7,101-332.1,153-489,163.8c-34.8,2.3-69.7,2.7-104.5,1.2c-133.4-6-268.9-38-400-69
							c-73.7-17.4-150-35.5-225.4-48.8c-28-4.9-54-8.9-79.6-12.2c-192.8-24.5-382.5-6.1-548.6,53.2
							C-175.2,306.7-348.9,449.3-442.6,623.4z"/>
					</g>
					<g class="st13">
						<path class="st2" d="M-431.8,633.3l-5.2-3c100.5-171.5,277.2-312.8,485-387.7c168.1-60.6,358.2-80.6,549.6-57.8
							c25.6,3,51.7,6.8,79.8,11.6c73.7,12.5,148.1,29.5,220.1,45.9c132.6,30.3,269.7,61.6,404.1,64.8c34.6,0.9,69.2-0.3,103.6-3.6
							c151.9-14.5,300.2-69.3,481.1-177.8c53.9-32.2,107.3-67.2,159.1-101.2c58.4-38.3,118.7-77.9,179.7-113.3
							c187.6-108.3,387.9-179.1,595.4-210.5c130.3-19.7,272.4-25.7,422.2-17.6c244.7,13.1,489.6,58.9,748.9,107.4
							c107.8,20.2,219.3,41,330.5,59.3l-1,5.9c-111.3-18.2-222.8-39.1-330.6-59.3c-259.1-48.5-503.8-94.2-748.1-107.3
							c-149.5-8-291.1-2.1-421,17.6c-206.7,31.3-406.3,101.9-593.3,209.7c-60.8,35.3-121.1,74.9-179.4,113.2
							c-51.8,34-105.3,69.1-159.3,101.3c-181.6,108.9-330.8,164-483.6,178.6c-34.7,3.3-69.5,4.5-104.3,3.6
							c-135-3.2-272.4-34.6-405.3-64.9c-71.9-16.4-146.3-33.4-219.8-45.9c-28-4.8-54-8.5-79.5-11.6
							c-190.5-22.7-379.6-2.8-546.9,57.5C-156.4,322.6-332,463-431.8,633.3z"/>
					</g>
					<g class="st14">
						<path class="st2" d="M-420.9,643.2l-5.1-3.2c106.5-167.7,285.2-306.7,490.2-381.3C233.4,197,422.9,175.5,612,196.6
							c25.5,2.8,51.6,6.4,79.7,11c71.9,11.7,144.5,27.7,214.8,43.1c134.3,29.6,273.1,60.2,408.9,60.6c34.6,0.1,69.1-1.9,103.4-6
							c185.5-22.8,344.6-110.1,475.7-192.6c42.2-26.4,84.5-54.6,125.4-81.8c68.6-45.6,139.5-92.8,212-133.3
							c185.9-103.1,389.6-165.4,605.5-185.2c129.9-12.4,273.2-10.4,426,6.1c200,21.6,397.5,63.4,606.7,107.7
							c152.5,32.3,310.1,65.7,468.8,90.5l-0.9,5.9c-158.9-24.8-316.6-58.2-469.2-90.6c-209-44.3-406.4-86.1-606.1-107.6
							c-152.4-16.4-295.3-18.5-424.8-6.1c-215.1,19.7-418,81.8-603.2,184.5c-72.3,40.3-143.1,87.5-211.6,133
							c-40.9,27.2-83.2,55.4-125.5,81.9c-131.7,82.8-291.4,170.5-478.1,193.4c-34.6,4.1-69.3,6.2-104.1,6.1
							c-136.4-0.4-275.6-31.1-410.1-60.7c-70.2-15.5-142.8-31.5-214.5-43.1c-28-4.5-54-8.1-79.4-10.9
							c-188.2-20.9-376.7,0.4-545.1,61.8C-137.6,338.5-315.1,476.6-420.9,643.2z"/>
					</g>
					<g class="st15">
						<path class="st2" d="M-410.1,653.1l-5-3.4c114.2-166.3,290.1-299.5,495.3-375c170.5-62.7,359.3-85.7,546.1-66.4
							c25.5,2.6,51.5,6,79.6,10.4c70.2,10.9,141.2,26,209.9,40.5c135.8,28.8,276.2,58.6,413.3,56.2c34.5-0.6,69-3.4,103.2-8.5
							c177-26.5,330.6-115.3,470.3-207.3c31.4-20.6,63-42.1,93.6-62.9c78-53,158.7-107.9,242.4-152.7
							c183.9-98,391-151.8,615.6-159.9c131-5.2,275.6,4.9,429.7,29.8c166.6,27,337.1,68.7,502,109
							c184.7,45.2,375.7,91.9,569.6,120.7l-0.9,5.9c-194.2-28.8-385.3-75.6-570.2-120.8c-172.4-42.2-335.2-82-501.6-109
							C3129.2-265,2985-275,2854.5-269.9c-223.7,8.1-429.9,61.7-613,159.2c-83.5,44.7-164,99.4-241.9,152.4
							c-30.6,20.8-62.3,42.3-93.7,63c-140.2,92.4-294.5,181.6-472.7,208.3c-34.4,5.1-69.2,7.9-103.9,8.5
							c-137.7,2.4-278.5-27.4-414.7-56.3C846,250.6,775,235.5,705,224.7c-28-4.3-53.9-7.7-79.3-10.3C439.9,195.2,252,218,82.3,280.4
							C-121.7,355.5-296.6,487.8-410.1,653.1z"/>
					</g>
					<g class="st16">
						<path class="st2" d="M-399.3,663.1l-4.8-3.6c120.3-162.4,298-293.3,500.5-368.6c171.7-63.8,360-88.2,544.3-70.7
							c25.4,2.4,51.3,5.6,79.5,9.7c68.6,10.1,138.1,24.3,205.3,38.1c137.3,28.1,279.3,57.1,417.4,51.7c34.5-1.3,68.9-4.9,102.9-10.9
							c177.4-31.4,326.9-127,464.9-222.1c21.2-14.6,42.4-29.3,63.5-44.2c86.7-60.7,176.4-123.4,271.2-172.1
							c182.6-93.4,393.3-138.7,625.7-134.6c132.2,2,278,20,433.4,53.6c141.1,30.5,284.4,71,423,110.2
							c208.5,59,424.1,120,644.7,151.1l-0.8,6c-221-31.1-436.8-92.2-645.5-151.2c-138.5-39.2-281.8-79.7-422.7-110.1
							c-155-33.5-300.4-51.4-432.3-53.4c-231.6-4.1-441.2,41-622.9,134c-94.4,48.4-183.9,111.1-270.5,171.6
							c-21.1,14.8-42.3,29.5-63.5,44.2c-138.5,95.5-288.6,191.4-467.2,223.1c-34.3,6-69,9.7-103.7,11
							c-138.9,5.4-281.3-23.7-418.9-51.8c-67.1-13.7-136.5-27.9-205-38c-28-4.1-53.9-7.3-79.2-9.7c-183.5-17.5-370.8,6.9-541.6,70.4
							C-103,371.4-279.7,501.5-399.3,663.1z"/>
					</g>
					<g class="st17">
						<path class="st2" d="M-388.5,673l-4.7-3.7c128.1-160.9,303-286.1,505.7-362.2c173-64.9,360.6-90.9,542.6-75
							c25.2,2.2,51.2,5.2,79.4,9.1c67.1,9.4,135.2,22.8,201,35.7c138.7,27.3,282,55.5,421.3,47.1c34.5-2,68.8-6.5,102.7-13.4
							c169.1-34.6,313.8-131.8,459.5-236.9c11.8-8.5,23.5-17,35.2-25.5c94.7-68.6,192.6-139.5,298.1-191.3
							c181.9-89.2,395.8-126,635.9-109.4c135.4,9.2,278.4,34.5,437.2,77.3c121.3,32.7,243.8,72.5,362.3,111.1
							C3913.9,9.5,4148,85.6,4389.1,117.7l-0.8,6c-241.6-32.1-476-108.3-702.6-182c-118.4-38.5-240.9-78.3-362-111
							c-158.4-42.7-301-67.9-436-77.1c-238.9-16.6-451.8,20-632.8,108.8c-105,51.6-202.7,122.3-297.2,190.8
							c-11.8,8.5-23.5,17-35.3,25.5c-146.2,105.5-291.5,203-461.8,237.9c-34.2,6.9-68.8,11.4-103.6,13.5
							c-140,8.4-283.8-19.8-422.8-47.2c-65.7-12.9-133.7-26.3-200.7-35.7c-28.1-3.9-54-6.9-79.1-9.1
							c-181.1-15.8-367.8,10.1-539.9,74.7C-87.1,388.3-261,512.9-388.5,673z"/>
					</g>
					<g class="st18">
						<path class="st2" d="M-377.7,682.9l-4.6-3.9c256-299.4,658.9-466.2,1051.6-435.2c92.1,7.3,185.7,24.9,276.2,42
							c174.1,32.9,354,66.8,527.4,26.5c174.1-40.5,320.9-151.2,462.8-258.2c101.9-76.9,207.3-156.4,323.2-210.8
							c283.7-133.2,639.2-127.6,1086.9,17C3451.6-105.5,3558-66.1,3661-28c239.9,88.7,487.9,180.5,744.9,212.7l-0.8,6
							c-257.7-32.3-506-124.2-746.2-213C3556-60.5,3449.6-99.8,3344-134c-446.2-144.2-800.2-149.8-1082.4-17.3
							C2146.2-97.1,2041-17.8,1939.3,58.9c-142.4,107.4-289.7,218.5-465,259.3c-174.6,40.6-355.2,6.5-529.8-26.5
							c-90.3-17.1-183.7-34.7-275.5-41.9C278.1,219-122.9,384.9-377.7,682.9z"/>
					</g>
				</g>
			</g>
		</g>
	</g>
</g>
</svg>
